# xmcd
#
# Track frame offsets: 
#        150
#        12009
#        35709
#        54459
#        72309
#        89859
#        117009
#        137259
#        154059
#        174759
#        201309
#        219459
#        239559
#
# Disc length: 3490 seconds
#
# Revision: 0
# Processed by: cddbd v1.5.2PL0 Copyright (c) Steve Scherf et al.
# Submitted via: ExactAudioCopy v1.3
#
DISCID=b20da00d
DTITLE=Patrick Norman - Tous en choeur avec Patrick Norman
DYEAR=2015
DGENRE=Pop Québécois
TTITLE0=Mon coeur est à toi
TTITLE1=La guitare de Jérémie
TTITLE2=Stardust
TTITLE3=Babe
TTITLE4=Chanson pour Maxence
TTITLE5=Quand le blé sera levé
TTITLE6=Vivre
TTITLE7=C'est la saison
TTITLE8=Je fais pleurer mes amis
TTITLE9=Elle s'en va
TTITLE10=L'hirondelle
TTITLE11=Après la tombée du rideau
TTITLE12=Quand on est en amour
EXTD=
EXTT0=
EXTT1=
EXTT2=
EXTT3=
EXTT4=
EXTT5=
EXTT6=
EXTT7=
EXTT8=
EXTT9=
EXTT10=
EXTT11=
EXTT12=
PLAYORDER=
